<?xml version="1.0" encoding="UTF-8"?>
<svg xmlns="http://www.w3.org/2000/svg" xmlns:xlink="http://www.w3.org/1999/xlink" width="2000" height="2000" viewBox="0 0 2000 2000">
<defs>
<clipPath id="clip-0">
<path clip-rule="nonzero" d="M 413 497 L 1249 497 L 1249 1503 L 413 1503 Z M 413 497 "/>
</clipPath>
<clipPath id="clip-1">
<path clip-rule="nonzero" d="M 538.882812 941.230469 C 537.808594 926.039062 541.988281 916.339844 548.5625 908.550781 C 550.695312 909.378906 552.996094 910.628906 555.171875 912.550781 C 557.695312 914.769531 559.25 917.171875 560.1875 918.96875 C 560.445312 917.460938 560.550781 915.601562 560.1875 913.550781 C 559.3125 908.621094 556.191406 905.199219 553.726562 903.179688 C 560.394531 896.960938 568.382812 891.550781 575.753906 884.519531 C 577.863281 915.289062 558.058594 924.121094 538.882812 941.230469 Z M 696 1324 C 724.394531 1207.058594 826.429688 1115 958 1084 C 963.042969 1051.578125 977.074219 990.140625 1022 928 C 1074.941406 854.769531 1141.429688 821.179688 1172 808 C 1178.199219 761.71875 1190.101562 709.261719 1212 654 C 1222.820312 626.679688 1235.160156 601.089844 1248.570312 577.101562 C 1147.769531 598.511719 1040.679688 640.019531 943.609375 716.25 C 910.300781 742.410156 881.097656 770.371094 855.464844 799.019531 C 863.394531 804.601562 908.464844 837.421875 917.90625 899.421875 C 919.1875 907.789062 919.683594 915.859375 919.566406 923.578125 C 919.304688 940.941406 915.988281 955.078125 913.054688 964.589844 C 911.050781 954.621094 907.84375 942.828125 902.597656 930.058594 C 898.835938 920.910156 894.710938 912.929688 890.707031 906.128906 C 894.582031 907.511719 898.617188 909.058594 902.789062 910.808594 C 907.066406 912.609375 911.101562 914.449219 914.882812 916.289062 C 911.929688 908.480469 905.992188 895.769531 894.273438 883.429688 C 883.671875 872.261719 872.609375 865.898438 865.34375 862.441406 C 866.40625 861.378906 867.726562 860.289062 869.335938 859.339844 C 876.140625 855.308594 883.4375 856.460938 886.167969 857.050781 C 877.800781 848.710938 865.6875 838.539062 849.347656 830.011719 C 819.160156 814.238281 790.75 812.5 775.363281 812.738281 C 780.933594 810.238281 787.851562 807.648438 795.976562 805.679688 C 804.894531 803.511719 812.890625 802.671875 819.402344 802.421875 C 802.78125 794.910156 766.644531 781.410156 720.914062 786.890625 C 734.742188 747.5 743.0625 703.039062 739.9375 654.941406 C 738.945312 639.730469 736.878906 625.140625 733.972656 611.210938 C 729.351562 642.109375 722.367188 667.28125 716.378906 685.5 C 708.726562 708.75 696.089844 746.019531 669.699219 785.191406 C 690.195312 720.738281 705.234375 629.640625 670.675781 537.96875 C 665.296875 523.710938 659.066406 510.359375 652.226562 497.871094 C 656.808594 528.769531 657.464844 554.890625 657.039062 574.070312 C 656.328125 606 654.484375 663.210938 624.953125 725.660156 C 617.609375 741.199219 610.246094 753.460938 604.902344 761.761719 C 597.875 733.339844 593.773438 727.011719 591.269531 727.269531 C 586.371094 727.769531 588.769531 753.25 580.039062 779.398438 C 573.761719 798.199219 563.105469 813.199219 551.703125 825.011719 C 547.820312 831.609375 541.039062 842.859375 531.914062 856.398438 C 503.796875 898.128906 482.042969 919.191406 489.203125 933.398438 C 491.949219 938.859375 496.046875 937.53125 498.828125 943.03125 C 509.320312 963.800781 467.417969 1015.441406 445.832031 1009.179688 C 430.035156 1004.601562 429.914062 970.359375 422.960938 970.929688 C 416.882812 971.421875 410.996094 996.550781 413.84375 1018.351562 C 420.050781 1065.839844 467.554688 1096.140625 489.410156 1108.179688 C 491.320312 1096.488281 495.015625 1080.390625 502.644531 1062.398438 C 505.65625 1063.988281 509.121094 1065.460938 513.0625 1066.550781 C 522.691406 1069.21875 530.898438 1068.511719 535.523438 1067.75 C 530.390625 1065.480469 522.257812 1061.078125 514.667969 1052.910156 C 512.890625 1051 511.316406 1049.058594 509.910156 1047.128906 C 510.078125 1046.808594 510.230469 1046.5 510.398438 1046.191406 C 524.992188 1018.988281 542.117188 1002.410156 553.925781 991.171875 C 586.039062 960.601562 624.28125 939.328125 627.203125 943.058594 C 629.195312 945.601562 611.246094 955.308594 595.464844 980.339844 C 567.269531 1025.050781 581.1875 1069.960938 549.550781 1083.769531 C 544.890625 1085.808594 540.074219 1087.488281 535.609375 1089.21875 C 538.925781 1122.511719 569.042969 1119.808594 645.09375 1114.25 C 633.988281 1069.871094 645.859375 1032.871094 679.539062 1001.519531 C 692.617188 989.351562 695.8125 973.550781 699.859375 965.398438 C 705.660156 959.800781 714.132812 949.980469 719.167969 935.550781 C 730.46875 903.171875 715.136719 874.269531 712.132812 868.851562 C 716.753906 875.421875 729.515625 895.371094 728.964844 923.710938 C 728.464844 949.761719 717.007812 968.050781 712.277344 974.808594 C 717.539062 983.398438 730.4375 1007.011719 728.785156 1039.351562 C 727.308594 1068.261719 714.988281 1088.691406 709.195312 1097.148438 C 672.996094 1156.769531 635.0625 1248.039062 649.699219 1355.910156 C 658.296875 1419.269531 682.386719 1468.878906 703.011719 1502.128906 C 701.222656 1493.199219 699.535156 1482.550781 698.539062 1470.550781 C 688.613281 1432.789062 682.125 1381.140625 696 1324 Z M 696 1324 "/>
</clipPath>
<clipPath id="clip-2">
<path clip-rule="nonzero" d="M 538.882812 941.230469 C 537.808594 926.039062 541.988281 916.339844 548.5625 908.550781 C 550.695312 909.378906 552.996094 910.628906 555.171875 912.550781 C 557.695312 914.769531 559.25 917.171875 560.1875 918.96875 C 560.445312 917.460938 560.550781 915.601562 560.1875 913.550781 C 559.3125 908.621094 556.191406 905.199219 553.726562 903.179688 C 560.394531 896.960938 568.382812 891.550781 575.753906 884.519531 C 577.863281 915.289062 558.058594 924.121094 538.882812 941.230469 Z M 696 1324 C 724.394531 1207.058594 826.429688 1115 958 1084 C 963.042969 1051.578125 977.074219 990.140625 1022 928 C 1074.941406 854.769531 1141.429688 821.179688 1172 808 C 1178.199219 761.71875 1190.101562 709.261719 1212 654 C 1222.820312 626.679688 1235.160156 601.089844 1248.570312 577.101562 C 1147.769531 598.511719 1040.679688 640.019531 943.609375 716.25 C 910.300781 742.410156 881.097656 770.371094 855.464844 799.019531 C 863.394531 804.601562 908.464844 837.421875 917.90625 899.421875 C 919.1875 907.789062 919.683594 915.859375 919.566406 923.578125 C 919.304688 940.941406 915.988281 955.078125 913.054688 964.589844 C 911.050781 954.621094 907.84375 942.828125 902.597656 930.058594 C 898.835938 920.910156 894.710938 912.929688 890.707031 906.128906 C 894.582031 907.511719 898.617188 909.058594 902.789062 910.808594 C 907.066406 912.609375 911.101562 914.449219 914.882812 916.289062 C 911.929688 908.480469 905.992188 895.769531 894.273438 883.429688 C 883.671875 872.261719 872.609375 865.898438 865.34375 862.441406 C 866.40625 861.378906 867.726562 860.289062 869.335938 859.339844 C 876.140625 855.308594 883.4375 856.460938 886.167969 857.050781 C 877.800781 848.710938 865.6875 838.539062 849.347656 830.011719 C 819.160156 814.238281 790.75 812.5 775.363281 812.738281 C 780.933594 810.238281 787.851562 807.648438 795.976562 805.679688 C 804.894531 803.511719 812.890625 802.671875 819.402344 802.421875 C 802.78125 794.910156 766.644531 781.410156 720.914062 786.890625 C 734.742188 747.5 743.0625 703.039062 739.9375 654.941406 C 738.945312 639.730469 736.878906 625.140625 733.972656 611.210938 C 729.351562 642.109375 722.367188 667.28125 716.378906 685.5 C 708.726562 708.75 696.089844 746.019531 669.699219 785.191406 C 690.195312 720.738281 705.234375 629.640625 670.675781 537.96875 C 665.296875 523.710938 659.066406 510.359375 652.226562 497.871094 C 656.808594 528.769531 657.464844 554.890625 657.039062 574.070312 C 656.328125 606 654.484375 663.210938 624.953125 725.660156 C 617.609375 741.199219 610.246094 753.460938 604.902344 761.761719 C 597.875 733.339844 593.773438 727.011719 591.269531 727.269531 C 586.371094 727.769531 588.769531 753.25 580.039062 779.398438 C 573.761719 798.199219 563.105469 813.199219 551.703125 825.011719 C 547.820312 831.609375 541.039062 842.859375 531.914062 856.398438 C 503.796875 898.128906 482.042969 919.191406 489.203125 933.398438 C 491.949219 938.859375 496.046875 937.53125 498.828125 943.03125 C 509.320312 963.800781 467.417969 1015.441406 445.832031 1009.179688 C 430.035156 1004.601562 429.914062 970.359375 422.960938 970.929688 C 416.882812 971.421875 410.996094 996.550781 413.84375 1018.351562 C 420.050781 1065.839844 467.554688 1096.140625 489.410156 1108.179688 C 491.320312 1096.488281 495.015625 1080.390625 502.644531 1062.398438 C 505.65625 1063.988281 509.121094 1065.460938 513.0625 1066.550781 C 522.691406 1069.21875 530.898438 1068.511719 535.523438 1067.75 C 530.390625 1065.480469 522.257812 1061.078125 514.667969 1052.910156 C 512.890625 1051 511.316406 1049.058594 509.910156 1047.128906 C 510.078125 1046.808594 510.230469 1046.5 510.398438 1046.191406 C 524.992188 1018.988281 542.117188 1002.410156 553.925781 991.171875 C 586.039062 960.601562 624.28125 939.328125 627.203125 943.058594 C 629.195312 945.601562 611.246094 955.308594 595.464844 980.339844 C 567.269531 1025.050781 581.1875 1069.960938 549.550781 1083.769531 C 544.890625 1085.808594 540.074219 1087.488281 535.609375 1089.21875 C 538.925781 1122.511719 569.042969 1119.808594 645.09375 1114.25 C 633.988281 1069.871094 645.859375 1032.871094 679.539062 1001.519531 C 692.617188 989.351562 695.8125 973.550781 699.859375 965.398438 C 705.660156 959.800781 714.132812 949.980469 719.167969 935.550781 C 730.46875 903.171875 715.136719 874.269531 712.132812 868.851562 C 716.753906 875.421875 729.515625 895.371094 728.964844 923.710938 C 728.464844 949.761719 717.007812 968.050781 712.277344 974.808594 C 717.539062 983.398438 730.4375 1007.011719 728.785156 1039.351562 C 727.308594 1068.261719 714.988281 1088.691406 709.195312 1097.148438 C 672.996094 1156.769531 635.0625 1248.039062 649.699219 1355.910156 C 658.296875 1419.269531 682.386719 1468.878906 703.011719 1502.128906 C 701.222656 1493.199219 699.535156 1482.550781 698.539062 1470.550781 C 688.613281 1432.789062 682.125 1381.140625 696 1324 "/>
</clipPath>
<linearGradient id="linear-pattern-0" gradientUnits="userSpaceOnUse" x1="-0.00252435" y1="0" x2="1.000005" y2="0" gradientTransform="matrix(835.461, 0, 0, 835.461, 413.105, 1000)">
<stop offset="0" stop-color="rgb(88.22937%, 12.641907%, 15.182495%)" stop-opacity="1"/>
<stop offset="0.015625" stop-color="rgb(88.101196%, 12.631226%, 15.203857%)" stop-opacity="1"/>
<stop offset="0.03125" stop-color="rgb(87.818909%, 12.609863%, 15.25116%)" stop-opacity="1"/>
<stop offset="0.046875" stop-color="rgb(87.509155%, 12.585449%, 15.301514%)" stop-opacity="1"/>
<stop offset="0.0625" stop-color="rgb(87.203979%, 12.561035%, 15.351868%)" stop-opacity="1"/>
<stop offset="0.078125" stop-color="rgb(86.897278%, 12.536621%, 15.400696%)" stop-opacity="1"/>
<stop offset="0.09375" stop-color="rgb(86.590576%, 12.512207%, 15.449524%)" stop-opacity="1"/>
<stop offset="0.109375" stop-color="rgb(86.2854%, 12.487793%, 15.498352%)" stop-opacity="1"/>
<stop offset="0.125" stop-color="rgb(85.980225%, 12.464905%, 15.54718%)" stop-opacity="1"/>
<stop offset="0.140625" stop-color="rgb(85.675049%, 12.440491%, 15.596008%)" stop-opacity="1"/>
<stop offset="0.15625" stop-color="rgb(85.372925%, 12.416077%, 15.643311%)" stop-opacity="1"/>
<stop offset="0.171875" stop-color="rgb(85.067749%, 12.391663%, 15.690613%)" stop-opacity="1"/>
<stop offset="0.1875" stop-color="rgb(84.765625%, 12.368774%, 15.737915%)" stop-opacity="1"/>
<stop offset="0.203125" stop-color="rgb(84.461975%, 12.34436%, 15.785217%)" stop-opacity="1"/>
<stop offset="0.21875" stop-color="rgb(84.161377%, 12.321472%, 15.830994%)" stop-opacity="1"/>
<stop offset="0.234375" stop-color="rgb(83.860779%, 12.297058%, 15.87677%)" stop-opacity="1"/>
<stop offset="0.25" stop-color="rgb(83.558655%, 12.272644%, 15.922546%)" stop-opacity="1"/>
<stop offset="0.265625" stop-color="rgb(83.258057%, 12.24823%, 15.968323%)" stop-opacity="1"/>
<stop offset="0.28125" stop-color="rgb(82.958984%, 12.225342%, 16.012573%)" stop-opacity="1"/>
<stop offset="0.296875" stop-color="rgb(82.658386%, 12.202454%, 16.056824%)" stop-opacity="1"/>
<stop offset="0.3125" stop-color="rgb(82.36084%, 12.179565%, 16.101074%)" stop-opacity="1"/>
<stop offset="0.328125" stop-color="rgb(82.061768%, 12.156677%, 16.145325%)" stop-opacity="1"/>
<stop offset="0.34375" stop-color="rgb(81.764221%, 12.132263%, 16.189575%)" stop-opacity="1"/>
<stop offset="0.359375" stop-color="rgb(81.466675%, 12.109375%, 16.2323%)" stop-opacity="1"/>
<stop offset="0.375" stop-color="rgb(81.169128%, 12.086487%, 16.275024%)" stop-opacity="1"/>
<stop offset="0.390625" stop-color="rgb(80.874634%, 12.063599%, 16.316223%)" stop-opacity="1"/>
<stop offset="0.40625" stop-color="rgb(80.577087%, 12.04071%, 16.358948%)" stop-opacity="1"/>
<stop offset="0.421875" stop-color="rgb(80.282593%, 12.017822%, 16.400146%)" stop-opacity="1"/>
<stop offset="0.4375" stop-color="rgb(79.988098%, 11.994934%, 16.441345%)" stop-opacity="1"/>
<stop offset="0.453125" stop-color="rgb(79.692078%, 11.973572%, 16.482544%)" stop-opacity="1"/>
<stop offset="0.46875" stop-color="rgb(79.399109%, 11.950684%, 16.523743%)" stop-opacity="1"/>
<stop offset="0.484375" stop-color="rgb(79.107666%, 11.927795%, 16.563416%)" stop-opacity="1"/>
<stop offset="0.5" stop-color="rgb(78.813171%, 11.904907%, 16.604614%)" stop-opacity="1"/>
<stop offset="0.515625" stop-color="rgb(78.521729%, 11.883545%, 16.642761%)" stop-opacity="1"/>
<stop offset="0.53125" stop-color="rgb(78.230286%, 11.860657%, 16.68396%)" stop-opacity="1"/>
<stop offset="0.546875" stop-color="rgb(77.938843%, 11.837769%, 16.722107%)" stop-opacity="1"/>
<stop offset="0.5625" stop-color="rgb(77.6474%, 11.816406%, 16.760254%)" stop-opacity="1"/>
<stop offset="0.578125" stop-color="rgb(77.357483%, 11.793518%, 16.798401%)" stop-opacity="1"/>
<stop offset="0.59375" stop-color="rgb(77.069092%, 11.772156%, 16.836548%)" stop-opacity="1"/>
<stop offset="0.609375" stop-color="rgb(76.777649%, 11.749268%, 16.874695%)" stop-opacity="1"/>
<stop offset="0.625" stop-color="rgb(76.490784%, 11.727905%, 16.911316%)" stop-opacity="1"/>
<stop offset="0.640625" stop-color="rgb(76.202393%, 11.706543%, 16.947937%)" stop-opacity="1"/>
<stop offset="0.65625" stop-color="rgb(75.914001%, 11.683655%, 16.984558%)" stop-opacity="1"/>
<stop offset="0.671875" stop-color="rgb(75.627136%, 11.662292%, 17.021179%)" stop-opacity="1"/>
<stop offset="0.6875" stop-color="rgb(75.341797%, 11.64093%, 17.056274%)" stop-opacity="1"/>
<stop offset="0.703125" stop-color="rgb(75.054932%, 11.619568%, 17.092896%)" stop-opacity="1"/>
<stop offset="0.71875" stop-color="rgb(74.769592%, 11.598206%, 17.126465%)" stop-opacity="1"/>
<stop offset="0.734375" stop-color="rgb(74.484253%, 11.576843%, 17.163086%)" stop-opacity="1"/>
<stop offset="0.75" stop-color="rgb(74.200439%, 11.553955%, 17.196655%)" stop-opacity="1"/>
<stop offset="0.765625" stop-color="rgb(73.9151%, 11.532593%, 17.230225%)" stop-opacity="1"/>
<stop offset="0.78125" stop-color="rgb(73.631287%, 11.51123%, 17.263794%)" stop-opacity="1"/>
<stop offset="0.796875" stop-color="rgb(73.348999%, 11.491394%, 17.297363%)" stop-opacity="1"/>
<stop offset="0.8125" stop-color="rgb(73.065186%, 11.470032%, 17.330933%)" stop-opacity="1"/>
<stop offset="0.828125" stop-color="rgb(72.784424%, 11.448669%, 17.362976%)" stop-opacity="1"/>
<stop offset="0.84375" stop-color="rgb(72.503662%, 11.427307%, 17.396545%)" stop-opacity="1"/>
<stop offset="0.859375" stop-color="rgb(72.221375%, 11.405945%, 17.427063%)" stop-opacity="1"/>
<stop offset="0.875" stop-color="rgb(71.940613%, 11.384583%, 17.460632%)" stop-opacity="1"/>
<stop offset="0.890625" stop-color="rgb(71.661377%, 11.36322%, 17.49115%)" stop-opacity="1"/>
<stop offset="0.90625" stop-color="rgb(71.382141%, 11.343384%, 17.521667%)" stop-opacity="1"/>
<stop offset="0.921875" stop-color="rgb(71.102905%, 11.322021%, 17.552185%)" stop-opacity="1"/>
<stop offset="0.9375" stop-color="rgb(70.823669%, 11.302185%, 17.584229%)" stop-opacity="1"/>
<stop offset="0.953125" stop-color="rgb(70.545959%, 11.280823%, 17.61322%)" stop-opacity="1"/>
<stop offset="0.96875" stop-color="rgb(70.26825%, 11.25946%, 17.643738%)" stop-opacity="1"/>
<stop offset="0.984375" stop-color="rgb(69.992065%, 11.239624%, 17.672729%)" stop-opacity="1"/>
<stop offset="1" stop-color="rgb(69.715881%, 11.218262%, 17.701721%)" stop-opacity="1"/>
</linearGradient>
<clipPath id="clip-3">
<path clip-rule="nonzero" d="M 688 556 L 1587 556 L 1587 1471 L 688 1471 Z M 688 556 "/>
</clipPath>
<clipPath id="clip-4">
<path clip-rule="nonzero" d="M 1248.570312 577.101562 C 1235.160156 601.089844 1222.820312 626.679688 1212 654 C 1190.101562 709.261719 1178.199219 761.71875 1172 808 C 1141.429688 821.179688 1074.941406 854.769531 1022 928 C 977.074219 990.140625 963.042969 1051.578125 958 1084 C 826.429688 1115 724.394531 1207.058594 696 1324 C 682.125 1381.140625 688.613281 1432.789062 698.539062 1470.550781 C 696.324219 1443.839844 697.5625 1410.460938 708.855469 1374.53125 C 739.003906 1278.601562 828.046875 1205.070312 927.085938 1192.898438 C 980.070312 1186.390625 1023.769531 1198.941406 1048.78125 1208.429688 C 1049.628906 1190.789062 1058.410156 1056.019531 1172.609375 976.089844 C 1243.699219 926.320312 1317.949219 924.191406 1346.519531 924.878906 C 1345.351562 890.859375 1347.03125 806.601562 1399.660156 719.761719 C 1462.429688 616.191406 1556.878906 576.25 1586.890625 564.941406 C 1514.628906 556.300781 1387.578125 547.578125 1248.570312 577.101562 Z M 1248.570312 577.101562 "/>
</clipPath>
<clipPath id="clip-5">
<path clip-rule="nonzero" d="M 1248.570312 577.101562 C 1235.160156 601.089844 1222.820312 626.679688 1212 654 C 1190.101562 709.261719 1178.199219 761.71875 1172 808 C 1141.429688 821.179688 1074.941406 854.769531 1022 928 C 977.074219 990.140625 963.042969 1051.578125 958 1084 C 826.429688 1115 724.394531 1207.058594 696 1324 C 682.125 1381.140625 688.613281 1432.789062 698.539062 1470.550781 C 696.324219 1443.839844 697.5625 1410.460938 708.855469 1374.53125 C 739.003906 1278.601562 828.046875 1205.070312 927.085938 1192.898438 C 980.070312 1186.390625 1023.769531 1198.941406 1048.78125 1208.429688 C 1049.628906 1190.789062 1058.410156 1056.019531 1172.609375 976.089844 C 1243.699219 926.320312 1317.949219 924.191406 1346.519531 924.878906 C 1345.351562 890.859375 1347.03125 806.601562 1399.660156 719.761719 C 1462.429688 616.191406 1556.878906 576.25 1586.890625 564.941406 C 1514.628906 556.300781 1387.578125 547.578125 1248.570312 577.101562 "/>
</clipPath>
<linearGradient id="linear-pattern-1" gradientUnits="userSpaceOnUse" x1="-0.545011" y1="0" x2="1.49577" y2="0" gradientTransform="matrix(-362, 510, -510, -362, 1277.43, 745.92)">
<stop offset="0" stop-color="rgb(88.22937%, 12.641907%, 15.182495%)" stop-opacity="1"/>
<stop offset="0.25" stop-color="rgb(88.22937%, 12.641907%, 15.182495%)" stop-opacity="1"/>
<stop offset="0.265625" stop-color="rgb(88.22937%, 12.641907%, 15.182495%)" stop-opacity="1"/>
<stop offset="0.273438" stop-color="rgb(88.102722%, 12.632751%, 15.203857%)" stop-opacity="1"/>
<stop offset="0.28125" stop-color="rgb(87.818909%, 12.609863%, 15.25116%)" stop-opacity="1"/>
<stop offset="0.289062" stop-color="rgb(87.506104%, 12.585449%, 15.301514%)" stop-opacity="1"/>
<stop offset="0.296875" stop-color="rgb(87.193298%, 12.561035%, 15.353394%)" stop-opacity="1"/>
<stop offset="0.304688" stop-color="rgb(86.880493%, 12.535095%, 15.403748%)" stop-opacity="1"/>
<stop offset="0.3125" stop-color="rgb(86.569214%, 12.510681%, 15.454102%)" stop-opacity="1"/>
<stop offset="0.320312" stop-color="rgb(86.257935%, 12.486267%, 15.50293%)" stop-opacity="1"/>
<stop offset="0.328125" stop-color="rgb(85.948181%, 12.461853%, 15.551758%)" stop-opacity="1"/>
<stop offset="0.335938" stop-color="rgb(85.636902%, 12.437439%, 15.600586%)" stop-opacity="1"/>
<stop offset="0.34375" stop-color="rgb(85.328674%, 12.413025%, 15.649414%)" stop-opacity="1"/>
<stop offset="0.351562" stop-color="rgb(85.020447%, 12.387085%, 15.698242%)" stop-opacity="1"/>
<stop offset="0.359375" stop-color="rgb(84.712219%, 12.362671%, 15.745544%)" stop-opacity="1"/>
<stop offset="0.367188" stop-color="rgb(84.403992%, 12.339783%, 15.794373%)" stop-opacity="1"/>
<stop offset="0.375" stop-color="rgb(84.09729%, 12.315369%, 15.840149%)" stop-opacity="1"/>
<stop offset="0.382812" stop-color="rgb(83.790588%, 12.290955%, 15.887451%)" stop-opacity="1"/>
<stop offset="0.390625" stop-color="rgb(83.483887%, 12.268066%, 15.933228%)" stop-opacity="1"/>
<stop offset="0.398438" stop-color="rgb(83.178711%, 12.243652%, 15.979004%)" stop-opacity="1"/>
<stop offset="0.40625" stop-color="rgb(82.872009%, 12.219238%, 16.02478%)" stop-opacity="1"/>
<stop offset="0.414062" stop-color="rgb(82.568359%, 12.19635%, 16.070557%)" stop-opacity="1"/>
<stop offset="0.421875" stop-color="rgb(82.264709%, 12.171936%, 16.114807%)" stop-opacity="1"/>
<stop offset="0.429688" stop-color="rgb(81.96106%, 12.149048%, 16.160583%)" stop-opacity="1"/>
<stop offset="0.4375" stop-color="rgb(81.658936%, 12.12616%, 16.204834%)" stop-opacity="1"/>
<stop offset="0.445312" stop-color="rgb(81.355286%, 12.101746%, 16.247559%)" stop-opacity="1"/>
<stop offset="0.453125" stop-color="rgb(81.054688%, 12.077332%, 16.290283%)" stop-opacity="1"/>
<stop offset="0.460938" stop-color="rgb(80.751038%, 12.054443%, 16.334534%)" stop-opacity="1"/>
<stop offset="0.46875" stop-color="rgb(80.451965%, 12.031555%, 16.377258%)" stop-opacity="1"/>
<stop offset="0.476562" stop-color="rgb(80.151367%, 12.008667%, 16.418457%)" stop-opacity="1"/>
<stop offset="0.484375" stop-color="rgb(79.850769%, 11.985779%, 16.461182%)" stop-opacity="1"/>
<stop offset="0.492188" stop-color="rgb(79.551697%, 11.961365%, 16.50238%)" stop-opacity="1"/>
<stop offset="0.5" stop-color="rgb(79.25415%, 11.938477%, 16.543579%)" stop-opacity="1"/>
<stop offset="0.507812" stop-color="rgb(78.956604%, 11.917114%, 16.584778%)" stop-opacity="1"/>
<stop offset="0.515625" stop-color="rgb(78.657532%, 11.894226%, 16.624451%)" stop-opacity="1"/>
<stop offset="0.523438" stop-color="rgb(78.361511%, 11.871338%, 16.665649%)" stop-opacity="1"/>
<stop offset="0.53125" stop-color="rgb(78.063965%, 11.84845%, 16.705322%)" stop-opacity="1"/>
<stop offset="0.539062" stop-color="rgb(77.767944%, 11.825562%, 16.744995%)" stop-opacity="1"/>
<stop offset="0.546875" stop-color="rgb(77.471924%, 11.802673%, 16.783142%)" stop-opacity="1"/>
<stop offset="0.554687" stop-color="rgb(77.177429%, 11.779785%, 16.822815%)" stop-opacity="1"/>
<stop offset="0.5625" stop-color="rgb(76.881409%, 11.758423%, 16.860962%)" stop-opacity="1"/>
<stop offset="0.570312" stop-color="rgb(76.58844%, 11.735535%, 16.899109%)" stop-opacity="1"/>
<stop offset="0.578125" stop-color="rgb(76.295471%, 11.714172%, 16.93573%)" stop-opacity="1"/>
<stop offset="0.585938" stop-color="rgb(76.002502%, 11.689758%, 16.973877%)" stop-opacity="1"/>
<stop offset="0.59375" stop-color="rgb(75.71106%, 11.668396%, 17.010498%)" stop-opacity="1"/>
<stop offset="0.601562" stop-color="rgb(75.418091%, 11.647034%, 17.047119%)" stop-opacity="1"/>
<stop offset="0.609375" stop-color="rgb(75.126648%, 11.624146%, 17.08374%)" stop-opacity="1"/>
<stop offset="0.617188" stop-color="rgb(74.835205%, 11.602783%, 17.118835%)" stop-opacity="1"/>
<stop offset="0.625" stop-color="rgb(74.545288%, 11.581421%, 17.155457%)" stop-opacity="1"/>
<stop offset="0.632812" stop-color="rgb(74.255371%, 11.558533%, 17.190552%)" stop-opacity="1"/>
<stop offset="0.640625" stop-color="rgb(73.96698%, 11.53717%, 17.224121%)" stop-opacity="1"/>
<stop offset="0.648438" stop-color="rgb(73.678589%, 11.515808%, 17.259216%)" stop-opacity="1"/>
<stop offset="0.65625" stop-color="rgb(73.390198%, 11.49292%, 17.292786%)" stop-opacity="1"/>
<stop offset="0.664062" stop-color="rgb(73.103333%, 11.471558%, 17.326355%)" stop-opacity="1"/>
<stop offset="0.671875" stop-color="rgb(72.814941%, 11.450195%, 17.359924%)" stop-opacity="1"/>
<stop offset="0.679688" stop-color="rgb(72.529602%, 11.428833%, 17.393494%)" stop-opacity="1"/>
<stop offset="0.6875" stop-color="rgb(72.242737%, 11.405945%, 17.425537%)" stop-opacity="1"/>
<stop offset="0.695312" stop-color="rgb(71.955872%, 11.386108%, 17.459106%)" stop-opacity="1"/>
<stop offset="0.703125" stop-color="rgb(71.670532%, 11.364746%, 17.489624%)" stop-opacity="1"/>
<stop offset="0.710938" stop-color="rgb(71.386719%, 11.343384%, 17.521667%)" stop-opacity="1"/>
<stop offset="0.71875" stop-color="rgb(71.104431%, 11.322021%, 17.553711%)" stop-opacity="1"/>
<stop offset="0.726562" stop-color="rgb(70.820618%, 11.300659%, 17.584229%)" stop-opacity="1"/>
<stop offset="0.734375" stop-color="rgb(70.536804%, 11.279297%, 17.614746%)" stop-opacity="1"/>
<stop offset="0.742188" stop-color="rgb(70.254517%, 11.257935%, 17.645264%)" stop-opacity="1"/>
<stop offset="0.75" stop-color="rgb(69.973755%, 11.238098%, 17.674255%)" stop-opacity="1"/>
<stop offset="1" stop-color="rgb(69.7052%, 11.216736%, 17.703247%)" stop-opacity="1"/>
</linearGradient>
</defs>
<rect x="-200" y="-200" width="2400" height="2400" fill="rgb(100%, 100%, 100%)" fill-opacity="1"/>
<g clip-path="url(#clip-0)">
<g clip-path="url(#clip-1)">
<g clip-path="url(#clip-2)">
<path fill-rule="nonzero" fill="url(#linear-pattern-0)" d="M 410.996094 497.871094 L 410.996094 1502.128906 L 1248.570312 1502.128906 L 1248.570312 497.871094 Z M 410.996094 497.871094 "/>
</g>
</g>
</g>
<g clip-path="url(#clip-3)">
<g clip-path="url(#clip-4)">
<g clip-path="url(#clip-5)">
<path fill-rule="nonzero" fill="url(#linear-pattern-1)" d="M 2022.53125 856.800781 L 985.246094 120.53125 L 246.484375 1161.328125 L 1283.769531 1897.597656 Z M 2022.53125 856.800781 "/>
</g>
</g>
</g>
</svg>
